<svg width="32" height="32" xmlns="http://www.w3.org/2000/svg">
 <title/>
 <desc/>

 <g>
  <title>background</title>
  <rect fill="none" id="canvas_background" height="402" width="582" y="-1" x="-1"/>
 </g>
 <g>
  <title>Layer 1</title>
  <path fill="#ff7f00" id="document-file-psd" d="m21,25.927537l0,2.00258c0,1.10649 -0.89428,1.99742 -1.99742,1.99742l-15.00516,0c-1.10649,0 -1.99742,-0.89871 -1.99742,-2.00733l0,-22.98534c0,-1.10899 0.89925,-2.00733 2.00853,-2.00733l9.99147,0l0,6.0019c0,1.11139 0.89808,1.9981 2.00592,1.9981l4.99408,0l0,2l-8.99315,0c-1.66064,0 -3.00685,1.34226 -3.00685,2.99879l0,7.00242c0,1.65619 1.33599,2.99879 3.00685,2.99879l8.99315,0l0,0zm-6,-23l0,5.99707c0,0.5539 0.45098,1.00293 0.99078,1.00293l5.00922,0l-6,-7l0,0zm-3.00544,11c-1.10156,0 -1.99456,0.90018 -1.99456,1.99202l0,7.01596c0,1.10016 0.90234,1.99202 1.99456,1.99202l17.01088,0c1.10156,0 1.99456,-0.90018 1.99456,-1.99202l0,-7.01596c0,-1.10016 -0.90234,-1.99202 -1.99456,-1.99202l-17.01088,0l0,0zm0.00544,4l0,5l1,0l0,-3l1.99512,0c1.10726,0 2.00488,-0.88773 2.00488,-2c0,-1.10457 -0.8939,-2 -2.00488,-2l-2.99512,0l0,2l0,0zm1,-1l0,2l2.00104,0c0.55171,0 0.99896,-0.44386 0.99896,-1c0,-0.55228 -0.44266,-1 -0.99896,-1l-2.00104,0l0,0zm7.00488,-1c-1.10726,0 -2.00488,0.88773 -2.00488,2c0,1.10457 0.88773,2 2,2l0.99063,0c0.55746,0 1.00937,0.44386 1.00937,1c0,0.55228 -0.44266,1 -0.99896,1l-1.00208,0c-0.55171,0 -0.99896,-0.45628 -0.99896,-0.99553l0,-0.01131l-1,0l0,0.00576c0,1.10517 0.8939,2.00108 2.00488,2.00108l0.99024,0c1.10726,0 2.00488,-0.88773 2.00488,-2c0,-1.10457 -0.88773,-2 -2,-2l-0.99063,0c-0.55746,0 -1.00937,-0.44386 -1.00937,-1c0,-0.55228 0.44266,-1 0.99896,-1l1.00208,0c0.55171,0 0.99896,0.45319 0.99896,1l1,0c0,-1.10457 -0.8939,-2 -2.00488,-2l-0.99024,0l0,0zm3.99512,0l0,7l2.99512,0c1.10726,0 2.00488,-0.88655 2.00488,-2.00592l0,-2.98816c0,-1.10784 -0.8939,-2.00592 -2.00488,-2.00592l-2.99512,0l0,0zm1,1l0,5l2.00104,0c0.55171,0 0.99896,-0.44372 0.99896,-0.99981l0,-3.00038c0,-0.55218 -0.44266,-0.99981 -0.99896,-0.99981l-2.00104,0l0,0z"/>
  <text transform="matrix(0.4256644542951361,0,0,0.5623952624635107,1.750520851011423,9.450824237537208) " xml:space="preserve" text-anchor="start" font-family="Helvetica, Arial, sans-serif" font-size="24" id="svg_1" y="26.538909" x="19.784583" stroke-width="0" fill="#ffffff">SEC</text>
 </g>
</svg>