<svg width="32" height="32" xmlns="http://www.w3.org/2000/svg">
 <title/>
 <desc/>

 <g>
  <title>background</title>
  <rect fill="none" id="canvas_background" height="402" width="582" y="-1" x="-1"/>
 </g>
 <g>
  <title>Layer 1</title>
  <path fill="#7f007f" id="document-text" d="m19.825319,0.833339l-15.288225,0c-1.69734,0 -3.073307,1.009246 -3.073307,2.255148l0,25.823028c0,1.245486 1.363237,2.255148 3.056308,2.255148l22.95981,0c1.687945,0 3.056308,-1.000921 3.056308,-2.244014l0,-19.101658l-7.64158,0c-1.695137,0 -3.069314,-0.99618 -3.069314,-2.244778l0,-6.742873l0,0zm-13.771149,3.370369l0,1.123456l0,1.123456l1.530128,0l0,-1.123456l1.530128,0l0,4.493826l1.530128,0l0,-4.493826l1.530128,0l0,1.123456l1.530128,0l0,-1.123456l0,-1.123456l-7.650638,0l0,0zm15.301277,-3.370369l0,6.737447c0,0.622283 0.690057,1.126748 1.51602,1.126748l7.664746,0l-9.180766,-7.864195l0,0zm-15.301277,14.604933l0,1.123456l19.89166,0l0,-1.123456l-19.89166,0l0,0zm0,-3.370369l0,1.123456l19.89166,0l0,-1.123456l-19.89166,0l0,0zm0,6.740738l0,1.123456l19.89166,0l0,-1.123456l-19.89166,0l0,0zm0,3.370369l0,1.123456l19.89166,0l0,-1.123456l-19.89166,0l0,0zm0,3.370369l0,1.123456l19.89166,0l0,-1.123456l-19.89166,0l0,0z"/>
  <rect id="svg_1" height="1.811587" width="22.681073" y="13.49548" x="4.659464" stroke-width="null" fill="#ffffff"/>
  <rect id="svg_3" height="1.811587" width="22.681073" y="17.485502" x="4.659464" stroke-width="null" fill="#ffffff"/>
  <rect id="svg_4" height="1.811587" width="22.681073" y="21.828782" x="4.659464" stroke-width="null" fill="#ffffff"/>
  <rect id="svg_5" height="1.811587" width="22.681073" y="25.959201" x="4.659464" stroke-width="null" fill="#ffffff"/>
  <rect id="svg_6" height="9.1304" width="1.594197" y="3.205664" x="9.695676" stroke-width="null" fill="#ffffff"/>
  <rect id="svg_7" height="1.304343" width="10.507206" y="2.046249" x="5.239171" stroke-width="null" fill="#ffffff"/>
 </g>
</svg>