<svg width="49" height="64" xmlns="http://www.w3.org/2000/svg" preserveAspectRatio="xMidYMid">

 <g>
  <title>background</title>
  <rect fill="none" id="canvas_background" height="402" width="582" y="-1" x="-1"/>
 </g>
 <g>
  <title>Layer 1</title>
  <path fill-rule="evenodd" fill="#7f007f" id="svg_2" d="m49,16.842l0,42.105c0,2.791 -2.27,5.053 -5.069,5.053l-38.862,0c-2.8,0 -5.069,-2.262 -5.069,-5.053l0,-53.894c0,-2.791 2.269,-5.053 5.069,-5.053l27.034,0l16.897,16.842z" class="cls-1"/>
  <path stroke="null" fill="#ffffff" fill-rule="evenodd" id="svg_3" d="m41.527168,45.37489c0.356909,0.395794 0.865116,0.592753 1.522682,0.592753c0.832141,0 1.660402,-0.163195 2.480905,-0.49146l0.793346,3.580904c-1.222025,0.350775 -2.506121,0.525224 -3.856168,0.525224c-2.135634,0 -3.673834,-0.463323 -4.61266,-1.389968c-0.938826,-0.928521 -1.408238,-2.432914 -1.408238,-4.515052l0,-8.941942l-2.341245,0l0,-3.477734l2.341245,0l0,-4.955865l4.54283,0l0,4.955865l4.294545,0l0,3.477734l-4.294545,0l0,8.382953c0,1.108598 0.178454,1.860794 0.537303,2.256588zm-13.161016,3.682197l-3.660256,-5.66867l-3.83871,5.66867l-5.033579,0l6.371988,-8.790002l-6.267243,-9.009471l5.299321,0l3.679653,5.63303l3.784398,-5.63303l5.016122,0l-6.35453,8.771244l6.389445,9.028229l-5.386609,0zm-21.071203,-0.864744c-0.938826,-0.928521 -1.408238,-2.432914 -1.408238,-4.515052l0,-8.941942l-2.341245,0l0,-3.477734l2.341245,0l0,-4.955865l4.54089,0l0,4.955865l4.296485,0l0,3.477734l-4.296485,0l0,8.382953c0,1.108598 0.178454,1.860794 0.537303,2.256588c0.358849,0.395794 0.865116,0.592753 1.522682,0.592753c0.834081,0 1.660402,-0.163195 2.482844,-0.49146l0.791407,3.580904c-1.220085,0.350775 -2.506121,0.525224 -3.854228,0.525224c-2.137574,0 -3.673834,-0.463323 -4.61266,-1.389968z" class="cls-2"/>
  <path fill="#bf00bf" fill-rule="evenodd" id="svg_4" d="m49,15.899l0,2.096l-13.813,0c-2.86,0 -4.179,-2.32 -4.179,-5.181l0,-12.814l2.092,0l15.9,15.899z" class="cls-3"/>
 </g>
</svg>