<svg width="512" height="512" xmlns="http://www.w3.org/2000/svg">

 <g>
  <title>background</title>
  <rect fill="none" id="canvas_background" height="402" width="582" y="-1" x="-1"/>
 </g>
 <g>
  <title>Layer 1</title>
  <polygon stroke="null" fill="#7f007f" points="338.1218461672179,6 36.88541280970912,6 36.88541280970912,506 485.1421203613281,506 485.1421203613281,122.80000305175781 " id="XMLID_111_" class="st0"/>
  <polygon transform="rotate(-3.990356922149658 409.66021728515625,63.240581512451385) " stroke="null" fill="#bf00bf" points="342.29425525665283,0.20288562774658203 477.02618885040283,126.27827835083008 342.29425525665283,126.27827835083008 " id="XMLID_110_" class="st1"/>
  <rect fill="#7f0000" y="261.698469" x="12.944817" width="329" id="XMLID_109_" height="156.1" class="st1"/>
  <polygon fill="#bf0000" points="12.944815635681152,417.7984628677368 38.04481887817383,438.99847507476807 38.04481887817383,417.7984628677368 " id="XMLID_108_" class="st2"/>
  <path fill="#ffffff" id="XMLID_764_" d="m101.075205,300.557891l0,16.7l10.6,0l0,14.5l-10.6,0l0,30.7c0,2.4 0.5,4.1 1.5,5.2c1,1.1 2.3,1.6 3.9,1.6c1.1,0 1.9,0 2.6,-0.1c0.6,-0.1 1.5,-0.2 2.4,-0.5l1.4,15.5c-2.1,0.5 -4,0.9 -5.7,1.1c-1.7,0.2 -3.7,0.3 -6,0.3c-6.9,0 -12.1,-1.8 -15.7,-5.5c-3.6,-3.7 -5.4,-9.5 -5.4,-17.5l0,-30.9l-9.4,0l0,-14.5l9.4,0l0,-16.7l21,0l0,0.1z" class="st3"/>
  <path fill="#ffffff" id="XMLID_766_" d="m166.450588,335.798468l0.4,0l8.5,-19.8l23.5,0l-19.5,33.1l20.1,33.9l-23.5,0l-8.9,-20.4l-0.4,0l-8.9,20.4l-23.5,0l20.1,-33.9l-19.5,-33.1l23.4,0l8.2,19.8z" class="st3"/>
  <path fill="#ffffff" id="XMLID_768_" d="m246.266548,298.239045l0,16.7l10.6,0l0,14.5l-10.6,0l0,30.7c0,2.4 0.5,4.1 1.5,5.2c1,1.1 2.3,1.6 3.9,1.6c1.1,0 1.9,0 2.6,-0.1c0.6,-0.1 1.5,-0.2 2.4,-0.5l1.4,15.5c-2.1,0.5 -4,0.9 -5.7,1.1c-1.7,0.2 -3.7,0.3 -6,0.3c-6.9,0 -12.1,-1.8 -15.7,-5.5c-3.6,-3.7 -5.4,-9.5 -5.4,-17.5l0,-30.9l-9.4,0l0,-14.5l9.4,0l0,-16.7l21,0l0,0.1z" class="st3"/>
 </g>
</svg>